<?xml version="1.0" standalone="no"?><!DOCTYPE svg PUBLIC "-//W3C//DTD SVG 1.1//EN" "http://www.w3.org/Graphics/SVG/1.1/DTD/svg11.dtd"><svg t="1687264837358" class="icon" viewBox="0 0 1024 1024" version="1.1" xmlns="http://www.w3.org/2000/svg" p-id="1708" xmlns:xlink="http://www.w3.org/1999/xlink" width="200" height="200"><path d="M797.6 92.9c-9.8-12.6-26.2-18.1-41.6-14.1l-121.7 31.8-108.8 28.5c-11.4 3-11.9 18.9-0.8 22.7l203.2 68.7 202.6 68.4c11.3 3.8 20.7-9.4 13.4-18.9l-68.8-88-77.5-99.1z" fill="#5EEAEA" p-id="1709"></path><path d="M89.9 469.6c6.1-1.4 9.9-7.4 8.5-13.5-2.2-9.4-4-19.1-5.4-28.6-0.9-6.2-6.6-10.4-12.8-9.5-6.2 0.9-10.4 6.6-9.5 12.8 1.5 10.1 3.4 20.3 5.7 30.3 1.2 5.2 5.8 8.8 11 8.8 0.8-0.1 1.6-0.1 2.5-0.3z" fill="#2D3A69" p-id="1710"></path><path d="M929.4 310.2c1.7 0.4 3.4 0.6 5 0.6 7.4 0 14.5-3.5 18.9-9.9 6-8.5 5.7-19.7-0.6-27.9L806.5 85.9c-12.6-16.1-33.5-23.2-53.3-18l-230.5 60.3c-10 2.6-16.9 11.3-17.3 21.6-0.4 10.3 5.9 19.4 15.7 22.7l193.2 65.3-23.3 68.6H111.3c-24.8 0-45.1 20.2-45.1 45.1v5.6c0 6.2 5 11.3 11.3 11.3s11.3-5 11.3-11.3v-5.6c0-12.4 10.1-22.5 22.5-22.5h572.1l-44.5 131.7c-3.5-7.2-8.8-13.4-15.6-18-10.2-6.9-22.5-9.3-34.5-7l-92.1 18c-12.1 2.4-22.5 9.3-29.3 19.5-3.6 5.4-6 11.4-7.1 17.7 7.8 1.8 15.1 3.3 22.1 4.7 1.4-9.6 8.7-17.7 18.7-19.7l92.1-18c1.5-0.3 3-0.4 4.6-0.4 4.6 0 9.1 1.4 13.1 4 5.2 3.5 8.7 8.8 9.9 15l0.8 3.9c4.3-2.1 8.7-4.3 13.1-6.7l-7 20.7c-2 5.9 1.2 12.3 7.1 14.3 1.2 0.4 2.4 0.6 3.6 0.6 4.7 0 9.1-3 10.7-7.7l58.3-172.5h204.1c12.4 0 22.5 10.1 22.5 22.5v19.7c0 211.2-171.8 383.1-383.1 383.1h-9.5c-6.2 0-11.3 5-11.3 11.3v82.2c0 5 3.2 9.3 8 10.8l228.5 69.9c4 1.2 4.1 4.4 3.9 6.2-0.3 1.8-1.3 4.8-5.5 4.8H233.1c-4.2 0-5.2-3-5.5-4.8-0.3-1.8-0.1-4.9 3.9-6.2L460 858.5c4.7-1.4 8-5.8 8-10.8v-82.6c0-6.1-4.8-11-10.8-11.3-161.1-6.2-302.1-114-350.8-268.3-1.9-5.9-8.2-9.2-14.1-7.4-5.9 1.9-9.2 8.2-7.4 14.1C135.4 652.3 279.4 765 445.4 775.9v63.5l-220.5 67.4c-13.6 4.2-21.7 16.9-19.6 31 2.1 14.1 13.5 24 27.8 24h531.7c14.3 0 25.7-9.8 27.8-24 2.1-14.1-5.9-26.9-19.6-31l-220.5-67.4v-62.6c107.2-0.5 208.3-42.7 284.7-119.1 76.8-76.8 119.1-178.6 119.1-286.5v-19.7c0-18.5-11-34.3-26.9-41.3zM622.6 182.9L528.3 151c-0.2-0.1-0.3-0.1-0.3-0.2-0.1-0.2-0.1-0.7 0-0.8 0 0 0.1-0.1 0.3-0.1l214.9-56.2L624.5 181c-0.7 0.6-1.3 1.3-1.9 1.9z m25.7 8.7l126-92.7 44 150.1-170-57.4z m263 114.8H714.8l20.8-61.5 184.6 62.4c-2.9-0.6-5.9-0.9-8.9-0.9z m-67.4-48.7c0-0.9-0.2-1.8-0.4-2.6l-39.9-136.2 131.4 168c0.2 0.3 0.4 0.5 0 1-0.3 0.5-0.6 0.4-0.9 0.3l-90.2-30.5z" fill="#2D3A69" p-id="1711"></path><path d="M391 472.4c7.9 2.3 15.4 4.5 22.7 6.5l4-6.1c6.7-10.3 9-22.6 6.5-34.6s-9.6-22.4-19.9-29.1l-78.6-51.4c-21.2-13.9-49.8-7.9-63.7 13.4l-43.6 66.7c8.1 0.1 16.8 0.5 26.1 1.3l36.4-55.7c7.1-10.8 21.7-13.9 32.5-6.8L392 428c10.8 7.1 13.9 21.7 6.8 32.5l-7.8 11.9z" fill="#2D3A69" p-id="1712"></path><path d="M120.6 462.2c41.9 156.3 185.1 272.3 354.1 272.3H548c169 0 312.2-116 354.1-272.3 0 0-157.8-49.7-246.8 0s-117.8 55-298.4 0-236.3 0-236.3 0z" fill="#FCFE8A" p-id="1713"></path></svg>